<svg xmlns="http://www.w3.org/2000/svg" viewBox="0 0 36.544 36.541">
  <defs>
    <style>
      .cls-1 {
        fill: #75baff;
      }
    </style>
  </defs>
  <path id="call-svgrepo-com" class="cls-1" d="M13.743,29.058C1.68,16.992,2.257,7.868,7.776,3.73L9,2.819a2.892,2.892,0,0,1,4.1.688l3.079,4.431a2.925,2.925,0,0,1-.488,3.881l-2.964,2.562a2.319,2.319,0,0,0-.77,2.537A23.086,23.086,0,0,0,17.6,25.2a23.143,23.143,0,0,0,8.28,5.651,2.322,2.322,0,0,0,2.539-.772l2.562-2.96a2.925,2.925,0,0,1,3.881-.488L39.3,29.711a2.886,2.886,0,0,1,.69,4.087l-.917,1.234C34.939,40.548,25.81,41.123,13.743,29.058Z" transform="translate(-4.008 -2.256)"/>
</svg>
