<svg xmlns="http://www.w3.org/2000/svg" viewBox="0 0 54.76 53.352">
  <defs>
    <style>
      .cls-1 {
        fill: #75baff;
        fill-rule: evenodd;
      }
    </style>
  </defs>
  <path id="github-svgrepo-com" class="cls-1" d="M28.38,1a27.351,27.351,0,0,0-8.656,53.305c1.369.25,1.87-.595,1.87-1.318,0-.649-.023-2.37-.039-4.655-7.616,1.655-9.219-3.665-9.219-3.665-1.248-3.16-3.043-4-3.043-4C6.809,38.969,9.48,39,9.48,39a5.76,5.76,0,0,1,4.2,2.816c2.441,4.185,6.407,2.973,7.968,2.276a5.832,5.832,0,0,1,1.737-3.657c-6.078-.688-12.47-3.035-12.47-13.518a10.571,10.571,0,0,1,2.816-7.338A9.81,9.81,0,0,1,14,12.347s2.292-.739,7.526,2.8a25.913,25.913,0,0,1,13.71,0c5.226-3.54,7.522-2.8,7.522-2.8a9.806,9.806,0,0,1,.274,7.236,10.578,10.578,0,0,1,2.816,7.342c0,10.506-6.407,12.822-12.5,13.495A6.536,6.536,0,0,1,35.2,45.485c0,3.653-.035,6.6-.035,7.5,0,.731.5,1.58,1.885,1.314A27.352,27.352,0,0,0,28.38,1Z" transform="translate(-1 -1)"/>
</svg>
