<svg xmlns="http://www.w3.org/2000/svg" viewBox="0 0 53.947 53.947">
  <defs>
    <style>
      .cls-1 {
        fill: #75baff;
      }

      .cls-2 {
        fill: #242a3f;
        fill-rule: evenodd;
      }
    </style>
  </defs>
  <g id="linkedin-svgrepo-com" transform="translate(-4 -4)">
    <circle id="Ellipse_7" data-name="Ellipse 7" class="cls-1" cx="26.974" cy="26.974" r="26.974" transform="translate(4 4)"/>
    <path id="Path_4" data-name="Path 4" class="cls-2" d="M20.44,15.08a3.051,3.051,0,0,1-3.278,3.038A2.972,2.972,0,0,1,14,15.08,2.971,2.971,0,0,1,17.2,12,3.047,3.047,0,0,1,20.44,15.08Zm-6.278,25V20.519H20.24V40.077H14.162Z" transform="translate(3.487 2.789)"/>
    <path id="Path_5" data-name="Path 5" class="cls-2" d="M22.281,24.671c0-2.44-.08-4.52-.161-6.24H27.4l.281,2.68h.12a7.158,7.158,0,0,1,6.039-3.119c4,0,7,2.64,7,8.4v11.6H34.76V27.152c0-2.521-.879-4.24-3.079-4.24A3.243,3.243,0,0,0,28.6,25.191a4.315,4.315,0,0,0-.24,1.521v11.28H22.283V24.671Z" transform="translate(6.318 4.879)"/>
  </g>
</svg>
