<svg xmlns="http://www.w3.org/2000/svg" viewBox="0 0 35.743 28.689">
  <defs>
    <style>
      .cls-1 {
        fill: none;
        stroke: #75baff;
        stroke-linecap: round;
        stroke-linejoin: round;
        stroke-width: 4px;
      }
    </style>
  </defs>
  <path id="mail-svgrepo-com_1_" data-name="mail-svgrepo-com (1)" class="cls-1" d="M3.517,5.517A1.758,1.758,0,0,1,4.764,5H32.98a1.758,1.758,0,0,1,1.247.517m-30.71,0A1.758,1.758,0,0,0,3,6.764V27.926a1.764,1.764,0,0,0,1.764,1.764H32.98a1.763,1.763,0,0,0,1.764-1.764V6.764a1.758,1.758,0,0,0-.517-1.247m-30.71,0L16.378,18.378a3.527,3.527,0,0,0,4.988,0L34.227,5.517" transform="translate(-1 -3)"/>
</svg>
