<svg xmlns="http://www.w3.org/2000/svg" viewBox="0 0 1920 282.807">
  <defs>
    <style>
      .cls-1 {
        fill: #75baff;
      }
    </style>
  </defs>
  <path id="wave" class="cls-1" d="M0,128l20,21.3C40,171,80,213,120,218.7c40,5.3,80-26.7,120-21.4,40,5.7,80,47.7,120,64C400,277,440,267,480,224S560,107,600,74.7C640,43,680,53,720,69.3,760,85,800,107,840,144s80,91,120,69.3c40-21.3,80-117.3,120-112,40,5.7,80,111.7,120,149.4,40,37.3,80,5.3,120-5.4,40-10.3,80-.3,120,5.4,40,5.3,80,5.3,120-37.4,40-42.3,80-128.3,120-160,40-32.3,80-10.3,120,16,40,26.7,80,58.7,100,74.7l20,16V320H0Z" transform="translate(0 -37.193)"/>
</svg>
